<svg width="136" height="136" viewBox="0 0 136 136" fill="none" xmlns="http://www.w3.org/2000/svg">
  <circle cx="68.001" cy="68" r="57.786" stroke="#1A1B1C"/>
  <circle cx="68" cy="68" r="50" fill="#FCFCFC" stroke="#1A1B1C" stroke-width="2"/>
  <path d="M78.321 68c7.042 0 12.75-5.708 12.75-12.75S85.363 42.5 78.321 42.5c-7.041 0-12.75 5.708-12.75 12.75S71.28 68 78.321 68Z" fill="#1A1B1C"/>
  <path fill-rule="evenodd" clip-rule="evenodd" d="M17 68c0 3.96.451 7.815 1.306 11.516C23.526 102.136 43.794 119 68 119c26.867 0 48.882-20.776 50.856-47.138A51.96 51.96 0 0 0 119 68c0-28.166-22.834-51-51-51S17 39.834 17 68Zm18.337-.274L19.382 78.77A49.962 49.962 0 0 1 18.215 68c0-27.496 22.29-49.786 49.786-49.786 27.496 0 49.786 22.29 49.786 49.786 0 1.541-.07 3.066-.207 4.572l-34.634 19.24a7.286 7.286 0 0 1-7.91-.54l-31.18-23.385a7.286 7.286 0 0 0-8.518-.161Z" fill="#1A1B1C"/>
</svg>
