<svg width="16" height="22" viewBox="0 0 16 22" fill="none" xmlns="http://www.w3.org/2000/svg">
<path fill-rule="evenodd" clip-rule="evenodd" d="M6.33841 0.16279C2.63079 0.927249 0.270341 3.55559 0.0467457 7.16862C-0.129335 10.0131 -0.0703876 10.1385 5.15666 18.0725C7.89798 22.2332 7.95312 22.2968 8.36702 21.7708C9.13055 20.8002 14.4966 12.5067 15.1895 11.226C15.9726 9.77869 16.236 7.17642 15.7678 5.50961C14.723 1.78891 10.3842 -0.671342 6.33841 0.16279ZM9.59603 4.70155C10.9381 5.28573 11.8317 6.90333 11.5652 8.2661C11.3457 9.38745 10.0709 10.7263 8.93694 11.0265C7.01834 11.5344 4.80322 10.178 4.42896 8.2661C4.16242 6.90333 5.05604 5.28573 6.39812 4.70155C6.99801 4.44064 7.71758 4.22699 7.99708 4.22699C8.27657 4.22699 8.99614 4.44064 9.59603 4.70155Z" fill="black"/>
</svg>
