<svg width="6" height="12" viewBox="0 0 6 12" fill="none" xmlns="http://www.w3.org/2000/svg">
<path d="M1.96 7.808C1.96 7.45333 1.99267 7.15 2.058 6.898C2.13267 6.63667 2.254 6.38933 2.422 6.156C2.59933 5.92267 2.83733 5.68 3.136 5.428C3.5 5.12 3.78 4.86333 3.976 4.658C4.18133 4.45267 4.326 4.252 4.41 4.056C4.494 3.86 4.536 3.622 4.536 3.342C4.536 2.894 4.39133 2.54867 4.102 2.306C3.81267 2.06333 3.39267 1.942 2.842 1.942C2.38467 1.942 1.97867 2.00267 1.624 2.124C1.26933 2.236 0.928667 2.37133 0.602 2.53L0.168 1.55C0.541333 1.354 0.952 1.19067 1.4 1.06C1.85733 0.929333 2.366 0.863999 2.926 0.863999C3.81267 0.863999 4.49867 1.08333 4.984 1.522C5.46933 1.96067 5.712 2.558 5.712 3.314C5.712 3.734 5.642 4.09333 5.502 4.392C5.37133 4.68133 5.18 4.952 4.928 5.204C4.68533 5.44667 4.396 5.708 4.06 5.988C3.752 6.24933 3.514 6.478 3.346 6.674C3.18733 6.87 3.08 7.066 3.024 7.262C2.968 7.44867 2.94 7.67733 2.94 7.948V8.186H1.96V7.808ZM1.638 10.244C1.638 9.89867 1.71733 9.656 1.876 9.516C2.044 9.376 2.254 9.306 2.506 9.306C2.73933 9.306 2.94 9.376 3.108 9.516C3.276 9.656 3.36 9.89867 3.36 10.244C3.36 10.58 3.276 10.8227 3.108 10.972C2.94 11.1213 2.73933 11.196 2.506 11.196C2.254 11.196 2.044 11.1213 1.876 10.972C1.71733 10.8227 1.638 10.58 1.638 10.244Z" fill="#C1C2C3"/>
</svg>
