<svg width="898" height="798" viewBox="0 0 898 798" fill="none" xmlns="http://www.w3.org/2000/svg">
  <path d="M41.564 129.3V23.093c.322-6.597 4.345-20.082 17.862-21.241 16.897-1.448 63.725 0 69.518 0 5.793 0 21.241 0 20.758 28-.386 22.4-.16 75.632 0 99.448l9.656 7.725V253.37h-9.656v17.862h18.345c6.115.805 18.345 6.759 18.345 24.138v473.104c0 9.012-5.117 27.228-25.586 28-20.469.773-94.46.322-128.897 0-10.46.644-31.283-4.055-30.896-28 .382-23.736.164-279.665.004-468.148l-.004-4.956c-.322-8.046 5.503-24.138 19.793-24.138h19.31v-16.414h-7.724V137.025l9.172-7.725Z" fill="#FCFCFC"/>
  <path d="M41.564 129.3V23.093c.322-6.597 4.345-20.082 17.862-21.241 16.897-1.448 63.725 0 69.518 0 5.793 0 21.241 0 20.758 28-.386 22.4-.16 75.632 0 99.448m-108.138 0-9.172 7.725m9.172-7.725h108.138m0 0 9.656 7.725m0 0V253.37h-9.656m9.656-116.345c-1.545 1.158-85.288.483-126.966 0m117.31 116.345v17.862m0-17.862-109.586 1.448m109.586 16.414h18.345c6.115.805 18.345 6.759 18.345 24.138v473.104c0 9.012-5.117 27.228-25.586 28-20.469.773-94.46.322-128.897 0-10.46.644-31.283-4.055-30.896-28 .386-23.945.16-284.184 0-473.104-.322-8.046 5.503-24.138 19.793-24.138h19.31m109.586 0H40.116m0 0v-16.414m0 0h-7.724V137.025" stroke="#000"/>
  <path fill-rule="evenodd" clip-rule="evenodd" d="M44.536 664.729v11.796H68.113v-23.591H44.536v11.795Zm30.581-10.848c-.2.52-.266 1.961-.147 3.201.167 1.744.56 2.303 1.732 2.471 1.097.155 1.515.667 1.515 1.853 0 1.298.35 1.638 1.684 1.638 1.572 0 1.684-.224 1.684-3.37s.113-3.37 1.685-3.37c1.359 0 1.684-.334 1.684-1.733 0-1.41-.282-1.691-1.516-1.516-.974.139-1.593.758-1.731 1.732-.326 2.301-3.49 2.148-3.49-.168 0-1.245-.357-1.685-1.368-1.685-.753 0-1.532.426-1.732.947Zm20.615 2.423c0 2.88.189 3.37 1.3 3.37.836 0 1.377-.542 1.515-1.517.14-.974.758-1.593 1.732-1.732 1.097-.156 1.515-.667 1.515-1.854 0-1.491-.27-1.637-3.031-1.637h-3.031v3.37Zm13.472-1.722c0 1.387.328 1.722 1.684 1.722 1.348 0 1.684.337 1.684 1.685 0 2.316-3.163 2.469-3.489.168-.139-.974-.757-1.593-1.731-1.732-1.234-.175-1.516.107-1.516 1.517 0 1.398.325 1.732 1.684 1.732 1.357 0 1.684.334 1.684 1.722 0 1.634.164 1.711 3.2 1.517l3.2-.206v-9.436l-3.2-.206c-3.036-.195-3.2-.117-3.2 1.517Zm10.105 10.147v11.796H142.886v-23.591H119.309v11.795Zm-54.036-.433c.129 5.156-.069 7.968-.605 8.614-.622.751-2.498.919-8.612.77l-7.815-.188-.189-8.615-.188-8.614 8.609.189 8.609.189.19 7.655Zm23.722-1.299c0 6.428.06 6.702 1.516 6.909 1.341.19 1.516.604 1.516 3.586 0 3.145-.113 3.37-1.684 3.37-1.532 0-1.703-.291-1.89-3.202-.17-2.652-.43-3.202-1.516-3.202-1.172 0-1.31.494-1.31 4.671 0 4.332.11 4.688 1.516 4.887.96.137 1.592.758 1.725 1.691.131.919.766 1.554 1.684 1.685.933.133 1.553.767 1.69 1.727.136.957.681 1.516 1.479 1.516 1.03 0 1.301-.593 1.468-3.201.176-2.732.428-3.234 1.722-3.418.951-.135 1.515-.682 1.515-1.469s-.564-1.335-1.516-1.47c-1.417-.201-1.515-.541-1.515-5.27 0-4.73.098-5.07 1.516-5.271 1.097-.156 1.515-.668 1.515-1.854 0-1.516-.25-1.638-3.368-1.638H91.69v-3.37c0-2.921-.18-3.37-1.347-3.37-1.257 0-1.348.449-1.348 6.693Zm50.374 1.901-.188 8.594-7.651.191c-5.063.127-7.967-.072-8.589-.588-.699-.581-.938-2.699-.938-8.336 0-4.156.202-7.759.449-8.006.247-.247 4.197-.449 8.778-.449h8.328l-.189 8.594Zm-87.647-4.775c-.248.247-.45 2.522-.45 5.056v4.605h10.105v-10.11h-4.603c-2.532 0-4.806.202-5.052.449Zm47.378 1.199c0 1.388.327 1.722 1.684 1.722 1.347 0 1.684.337 1.684 1.685 0 1.36.334 1.685 1.728 1.685 1.489 0 1.7.258 1.516 1.854-.169 1.471-.56 1.853-1.897 1.853-1.336 0-1.728-.382-1.897-1.853-.151-1.31-.595-1.854-1.515-1.854-1.172 0-1.303.508-1.303 5.055 0 4.545.131 5.056 1.3 5.056.836 0 1.377-.542 1.516-1.517.154-1.086.741-1.577 2.068-1.729 1.595-.184 1.852.027 1.852 1.516 0 1.404.323 1.73 1.714 1.73 1.696 0 1.711-.049 1.515-4.887-.18-4.448-.33-4.906-1.678-5.098-1.249-.177-1.513-.705-1.684-3.37l-.204-3.159-3.199-.206c-3.037-.194-3.2-.117-3.2 1.517Zm26.945 3.378v5.084h10.164l-.198-4.886-.199-4.887-4.883-.198-4.884-.198v5.085Zm-54.308-.677c-.522 1.362.255 2.391 1.805 2.391.945 0 1.307-.466 1.307-1.685 0-1.244-.358-1.685-1.368-1.685-.753 0-1.538.44-1.744.979Zm10.298 2.841c-.247.247-.45 1.005-.45 1.685 0 .869.5 1.235 1.685 1.235 1.347 0 1.684-.337 1.684-1.685 0-1.185-.367-1.685-1.235-1.685-.68 0-1.438.202-1.684.45Zm-10.273 3.538c-.154.155-.28 2.354-.28 4.887 0 4.464.051 4.606 1.683 4.606 2.315 0 2.468 3.165.169 3.491-1.33.19-1.516.61-1.516 3.419 0 2.872-.156 3.202-1.516 3.202-1.156-.002-1.515.387-1.515 1.636 0 1.187.418 1.698 1.515 1.854 1.14.162 1.463.592 1.305 1.732-.171 1.233.112 1.517 1.516 1.517 1.392 0 1.726.326 1.726 1.685 0 1.572.224 1.685 3.368 1.685h3.368v-20.221h-1.684c-1.214 0-1.684-.363-1.684-1.301 0-.836-.541-1.378-1.515-1.517-1.085-.154-1.577-.742-1.729-2.069-.184-1.596.027-1.853 1.516-1.853 1.343 0 1.728-.338 1.728-1.517 0-1.352-.334-1.517-3.087-1.517-1.698 0-3.214.127-3.368.281Zm6.76 3.346c-.167.168-.305.861-.305 1.541 0 .869.5 1.236 1.684 1.236 1.306 0 1.684-.347 1.684-1.541 0-1.103-.39-1.54-1.38-1.54-.758 0-1.515.137-1.683.304Zm33.916 1.375c-.141 1.212-.662 1.804-1.718 1.954-2.22.316-2.07 2.818.168 2.818 1.647 0 1.684.112 1.684 5.055s-.037 5.055-1.684 5.055c-1.347 0-1.684.337-1.684 1.685 0 1.349.337 1.686 1.684 1.686 1.348 0 1.684.337 1.684 1.685 0 1.572.225 1.685 3.368 1.685 3.144 0 3.369.112 3.369 1.685 0 1.315.344 1.685 1.568 1.685 1.189 0 1.557-.363 1.516-1.498-.038-1.076.423-1.599 1.631-1.854 1.117-.235 1.684-.81 1.684-1.703 0-.97.52-1.408 1.853-1.561l1.852-.214v5.437c0 5.35-.027 5.437-1.684 5.437-1.235 0-1.684.359-1.684 1.348 0 1.168.449 1.348 3.368 1.348 3.144 0 3.368-.112 3.368-1.685 0-1.348.337-1.685 1.684-1.685 1.235 0 1.684-.359 1.684-1.348 0-.983-.449-1.348-1.655-1.348-1.6 0-1.663-.179-1.853-5.224l-.197-5.224-3.58-.205-3.581-.205.16-4.85.161-4.85-3.148-.206-3.147-.205v3.407c0 3.185.109 3.407 1.684 3.407 1.347 0 1.684.337 1.684 1.685 0 1.584-.214 1.685-3.537 1.686l-3.536.001v-8.201c0-7.966-.043-8.204-1.482-8.311-1.128-.084-1.531.306-1.684 1.628Zm-10.091 3.592c-.163 1.14-.592 1.464-1.732 1.306-1.232-.171-1.515.112-1.515 1.517 0 1.393.326 1.727 1.684 1.727 1.347 0 1.684.337 1.684 1.685s.337 1.685 1.684 1.685c1.636 0 1.684-.135 1.684-4.718 0-4.548-.059-4.718-1.637-4.718-1.185 0-1.697.418-1.852 1.516Zm-53.962 1.598c-.265.264-.48 1.795-.48 3.402v2.92H54.714l-.206-3.201-.205-3.202-2.72-.2c-1.495-.11-2.935.016-3.199.281Zm16.956.087c-.043.279-.119.961-.168 1.517-.064.701-1.124 1.114-3.46 1.348-2.825.282-3.401.575-3.577 1.813-.132.918-.766 1.553-1.684 1.685-.933.132-1.554.766-1.69 1.726-.175 1.235.106 1.516 1.515 1.516 1.398 0 1.732-.324 1.732-1.685 0-1.572.224-1.685 3.368-1.685 3.143 0 3.368-.112 3.368-1.685 0-1.348.337-1.685 1.684-1.685s1.684-.337 1.684-1.685c0-1.236-.36-1.685-1.347-1.685-.741 0-1.383.227-1.425.505Zm64.544-.079c-.259.26-.472 1.787-.472 3.394 0 2.665.147 2.92 1.684 2.92 1.347 0 1.684.337 1.684 1.685 0 1.361.334 1.685 1.731 1.685 1.41 0 1.691-.281 1.516-1.516-.137-.962-.757-1.594-1.696-1.728-1.248-.177-1.512-.705-1.684-3.364-.142-2.2-.519-3.213-1.247-3.351-.574-.109-1.256.015-1.516.275Zm-44.423 4.629c-.27 1.413-.064 1.685 1.27 1.685 1.247 0 1.59-.363 1.59-1.685 0-1.201-.365-1.685-1.269-1.685-.818 0-1.383.598-1.59 1.685Zm51.168-1.267c-.264.264-.481 1.037-.481 1.717 0 .869.5 1.235 1.684 1.235 1.348 0 1.684.337 1.684 1.685 0 1.358.335 1.685 1.722 1.685 1.632 0 1.71-.163 1.515-3.201l-.205-3.202-2.719-.2c-1.495-.11-2.936.016-3.2.281Zm-71.267 3.121c-.031.093-.132.851-.225 1.685-.132 1.187.173 1.516 1.403 1.516 1.228 0 1.572-.369 1.572-1.685 0-1.235-.36-1.685-1.347-1.685-.741 0-1.373.076-1.404.169ZM99.1 688.32c0 1.236.359 1.685 1.347 1.685s1.347-.449 1.347-1.685c0-1.235-.359-1.685-1.347-1.685s-1.347.45-1.347 1.685Zm-54.092 2.111c-.26.261-.472 2.546-.472 5.079v4.606h3.368c3.144 0 3.368-.113 3.368-1.685 0-1.348.337-1.685 1.684-1.685 1.348 0 1.684.337 1.684 1.685 0 1.647.113 1.685 5.053 1.685 4.94 0 5.052-.038 5.052-1.685 0-1.348.337-1.685 1.684-1.685 1.227 0 1.684-.361 1.684-1.33 0-1.256-.557-1.341-9.906-1.517l-9.907-.186-.396-1.682c-.39-1.654-1.969-2.526-2.896-1.6Zm33.21 1.644c0 1.76-.227 2.036-1.516 1.853-1.085-.154-1.577-.742-1.729-2.069-.184-1.596.027-1.854 1.516-1.854 1.48 0 1.728.298 1.728 2.07Zm17.514-.385c0 1.236.359 1.686 1.347 1.686s1.347-.45 1.347-1.686c0-1.235-.359-1.685-1.347-1.685s-1.347.45-1.347 1.685Zm3.368 5.393c0 2.583.2 3.033 1.347 3.033 1.148 0 1.347-.45 1.347-3.033 0-2.584-.199-3.033-1.347-3.033s-1.347.449-1.347 3.033Zm37.049-1.685c0 .988.45 1.348 1.684 1.348 1.235 0 1.684-.36 1.684-1.348 0-.989-.449-1.348-1.684-1.348-1.234 0-1.684.359-1.684 1.348Zm-67.362 3.37c0 .898.449 1.348 1.347 1.348.898 0 1.347-.45 1.347-1.348 0-.899-.45-1.348-1.347-1.348-.898 0-1.347.449-1.347 1.348Zm23.576 0c0 .898.45 1.348 1.348 1.348.898 0 1.347-.45 1.347-1.348 0-.899-.45-1.348-1.347-1.348-.898 0-1.347.449-1.347 1.348Zm13.352.168c-.139.975-.757 1.594-1.731 1.733-.952.134-1.516.682-1.516 1.469s.564 1.335 1.516 1.469c1.092.156 1.576.742 1.731 2.099l.216 1.883-5.268-.198c-4.834-.182-5.286-.319-5.478-1.673-.131-.919-.766-1.554-1.684-1.685-.933-.133-1.553-.767-1.69-1.727-.136-.96-.68-1.516-1.486-1.516-1.11 0-1.295.617-1.468 4.887-.194 4.773-.242 4.891-2.05 5.099-1.806.209-1.853.126-1.853-3.201 0-3.193-.11-3.415-1.684-3.415-1.572 0-1.684.225-1.684 3.37 0 3.17-.104 3.37-1.732 3.37-1.409 0-1.69.282-1.515 1.517.138.975.757 1.593 1.73 1.732 2.3.326 2.148 3.492-.168 3.492-1.347 0-1.684-.337-1.684-1.685 0-1.573-.224-1.685-3.368-1.685-3.144 0-3.368-.113-3.368-1.686 0-1.235-.359-1.685-1.347-1.685s-1.347.45-1.347 1.685c0 1.216.362 1.686 1.3 1.686.836 0 1.377.541 1.515 1.516.137.96.757 1.594 1.69 1.726.919.132 1.553.767 1.684 1.685.131.92.766 1.555 1.685 1.685.918.132 1.552.767 1.684 1.686.132.933.766 1.554 1.725 1.691 1.234.175 1.516-.107 1.516-1.517 0-1.475.3-1.732 2.02-1.732 1.707 0 2.021.262 2.021 1.685 0 1.548.248 1.685 3.032 1.685s3.03-.137 3.03-1.685c0-1.348-.336-1.685-1.683-1.685s-1.684-.337-1.684-1.685c0-1.423.314-1.685 2.02-1.685 1.707 0 2.022.262 2.022 1.685 0 1.572.224 1.685 3.368 1.685 3.144 0 3.368.112 3.368 1.685 0 1.57-.228 1.685-3.321 1.685-2.932 0-3.347.178-3.537 1.517-.205 1.445-.54 1.525-7.12 1.708-6.838.19-6.905.209-6.905 1.854 0 1.33-.341 1.661-1.713 1.661-1.697 0-1.712.05-1.516 4.887.182 4.484.323 4.904 1.714 5.103 1.234.175 1.515-.107 1.515-1.517 0-1.629.2-1.732 3.368-1.732 3.144 0 3.369-.113 3.369-1.685 0-1.36-.334-1.685-1.729-1.685-1.489 0-1.7-.258-1.516-1.854.201-1.746.408-1.854 3.581-1.854h3.369v5.056c0 4.693-.106 5.07-1.481 5.266-1.249.177-1.512.705-1.684 3.37l-.204 3.159-3.536.204c-3.396.195-3.537.135-3.537-1.517 0-1.385-.327-1.72-1.684-1.72-1.36 0-1.684-.334-1.684-1.732 0-1.41-.281-1.692-1.515-1.517-1.316.188-1.516.617-1.516 3.249 0 2.607.207 3.063 1.475 3.243.918.131 1.552.766 1.683 1.685.197 1.387.604 1.487 6.778 1.668l6.568.193v-3.395c0-3.322.043-3.394 2.02-3.394 1.707 0 2.022.262 2.022 1.685 0 1.236.359 1.685 1.347 1.685s1.347-.449 1.347-1.685c0-1.348.337-1.685 1.684-1.685 2.315 0 2.468-3.165.168-3.491-1.293-.184-1.545-.686-1.72-3.418-.187-2.915-.357-3.201-1.897-3.201-1.449 0-1.662-.267-1.48-1.854.17-1.471.561-1.854 1.898-1.854 1.21 0 1.742.408 1.89 1.448.114.796.78 1.598 1.483 1.782 1.114.292 1.302-.108 1.478-3.133l.201-3.467 3.368-.055c2.883-.047 3.399-.259 3.577-1.468.164-1.11-.196-1.459-1.684-1.63l-1.893-.217v-13.481h1.684c1.345 0 1.728.381 1.901 1.894.173 1.511.515 1.852 1.684 1.685 1.265-.179 1.496-.701 1.672-3.789.187-3.252.342-3.561 1.684-3.37.938.133 1.558.766 1.695 1.727.157 1.109.666 1.516 1.894 1.516 1.356 0 1.639-.293 1.47-1.516-.171-1.225.113-1.517 1.473-1.517 1.336 0 1.728.383 1.897 1.854.184 1.596-.027 1.853-1.516 1.853-1.405 0-1.729.323-1.729 1.723 0 1.633.165 1.711 3.191 1.516 2.895-.187 3.191-.361 3.199-1.891.008-1.317.399-1.73 1.79-1.891 1.37-.159 1.703-.499 1.447-1.479-.184-.699-.985-1.365-1.78-1.479-.929-.132-1.447-.688-1.447-1.554 0-1.123-.561-1.404-3.368-1.685-3.027-.303-3.347-.491-3.157-1.854.171-1.232-.112-1.516-1.516-1.516-1.393 0-1.727-.326-1.727-1.685 0-1.57-.227-1.685-3.321-1.685-2.931 0-3.346.178-3.536 1.516Zm33.802 1.517c0 2.786.138 3.033 1.684 3.033 1.547 0 1.685-.247 1.685-3.033s-.138-3.033-1.685-3.033c-1.546 0-1.684.247-1.684 3.033Zm-74.483 1.685c0 .955.448 1.348 1.539 1.348 1.09 0 1.54-.393 1.54-1.348 0-.955-.45-1.348-1.54-1.348s-1.54.393-1.54 1.348Zm57.643 0c0 .871.449 1.348 1.268 1.348.703 0 1.426-.602 1.622-1.348.28-1.072.02-1.348-1.27-1.348-1.171 0-1.62.373-1.62 1.348Zm-68.037 3.37c0 1.228.45 1.348 5.053 1.348s5.052-.12 5.052-1.348c0-1.228-.45-1.348-5.052-1.348-4.603 0-5.053.12-5.053 1.348Zm16.841 0c0 .989.45 1.348 1.684 1.348 1.347 0 1.684.337 1.684 1.685s.337 1.685 1.684 1.685c1.547 0 1.684-.247 1.684-3.033v-3.033H74.85c-2.919 0-3.368.18-3.368 1.348Zm-26.814 5.224c.17 2.658.43 3.202 1.523 3.202.85 0 1.456-.598 1.712-1.686.249-1.064.942-1.764 1.882-1.9.947-.137 1.488-.688 1.488-1.517 0-1.113-.49-1.301-3.405-1.301h-3.405l.205 3.202Zm20.556-1.854c-.28 1.073-.02 1.348 1.27 1.348 1.17 0 1.62-.373 1.62-1.348 0-.871-.45-1.348-1.269-1.348-.702 0-1.426.602-1.62 1.348Zm70.926-.047c0 .837.542 1.379 1.516 1.517 1.32.188 1.542.671 1.719 3.754.195 3.398.135 3.539-1.516 3.539-1.678 0-1.719.112-1.719 4.671 0 4.331.111 4.687 1.516 4.887.949.135 1.593.756 1.722 1.663.195 1.37 2.312 2.547 3.123 1.737.206-.207.376-1.69.376-3.297 0-2.666-.147-2.921-1.685-2.921-1.568 0-1.684-.228-1.684-3.323 0-2.933.178-3.349 1.516-3.539 1.391-.198 1.532-.618 1.714-5.102l.198-4.887h-3.398c-2.908 0-3.398.188-3.398 1.301Zm-37.183 5.271.205 3.539h-2.057c-1.744 0-2.056-.256-2.056-1.685 0-1.245-.358-1.685-1.368-1.685-1.524 0-2.356-1.468-1.742-3.071.302-.789 1.195-.997 3.609-.842l3.206.205.203 3.539Zm-47.694.169v3.37h-3.415c-3.156 0-3.398.115-3.2 1.516.184 1.291.686 1.547 3.373 1.72 2.664.172 3.191.436 3.368 1.686.137.961.684 1.481 1.558 1.481 1.13 0 1.38-.518 1.553-3.202l.206-3.201h3.714c3.467 0 3.7.101 3.5 1.516-.156 1.096-.742 1.578-2.108 1.734-1.51.173-1.85.515-1.684 1.685.197 1.388.574 1.473 6.928 1.566 6.332.093 6.721.18 6.737 1.508.008.775.243 1.414.521 1.418 5.43.094 5.894-.012 5.894-1.339 0-.989-.449-1.348-1.684-1.348-1.347 0-1.684-.337-1.684-1.685s-.337-1.685-1.684-1.685-1.684-.337-1.684-1.685c0-2.24-2.5-2.39-2.816-.169-.154 1.086-.741 1.578-2.068 1.73-1.595.184-1.852-.027-1.852-1.517 0-1.395.325-1.729 1.684-1.729 1.347 0 1.684-.337 1.684-1.685 0-1.573-.224-1.685-3.368-1.685-3.144 0-3.368-.113-3.368-1.686 0-1.348-.337-1.685-1.684-1.685-1.348 0-1.684.337-1.684 1.685 0 1.349-.337 1.686-1.684 1.686-1.348 0-1.685-.337-1.685-1.686 0-1.348-.336-1.685-1.684-1.685-1.571 0-1.684.225-1.684 3.371Zm78.141-1.686c0 1.349-.337 1.686-1.684 1.686s-1.684.337-1.684 1.685.337 1.685 1.684 1.685c1.357 0 1.684.335 1.684 1.72 0 1.652-.141 1.712-3.537 1.516-3.176-.182-3.531-.357-3.483-1.72.051-1.439-.197-1.516-4.884-1.516-4.817 0-4.937-.041-4.937-1.685 0-1.348-.336-1.685-1.684-1.685-1.347 0-1.684.337-1.684 1.685s-.337 1.685-1.684 1.685-1.684.337-1.684 1.685.337 1.685 1.684 1.685c1.358 0 1.684.334 1.684 1.727 0 1.405.284 1.688 1.516 1.517 1.386-.193 1.533.093 1.719 3.328.195 3.398.135 3.538-1.516 3.538-1.69 0-1.719.085-1.719 5.056 0 4.942-.038 5.055-1.684 5.055s-1.684-.113-1.684-5.055c0-4.943-.038-5.056-1.684-5.056h-1.684v13.481h1.684c1.359 0 1.684.334 1.684 1.732 0 1.41.282 1.692 1.516 1.517 1.29-.183 1.546-.686 1.719-3.375.172-2.665.435-3.193 1.684-3.37.939-.134 1.559-.766 1.696-1.728.326-2.301 3.489-2.148 3.489.169 0 1.348-.336 1.685-1.684 1.685-1.647 0-1.684.11-1.684 5.092v5.093l3.2-.206c2.656-.171 3.2-.429 3.2-1.523 0-.821-.586-1.456-1.556-1.685-.855-.203-1.537-.596-1.515-.873.021-.278.039-.94.039-1.47s.661-1.061 1.468-1.179c1.249-.184 1.474-.667 1.515-3.249.045-2.794.195-3.05 1.901-3.246 1.808-.209 1.853-.13 1.853 3.238v3.452l3.199-.205 3.2-.206.337-5.055c.296-4.452.494-5.055 1.654-5.058.85-.001 1.457-.599 1.712-1.685.249-1.063.943-1.762 1.882-1.898 2.196-.318 2.022-2.818-.196-2.818-1.645 0-1.684-.115-1.684-5.008 0-4.681.099-5.023 1.516-5.224.974-.138 1.592-.757 1.731-1.732.175-1.235-.106-1.516-1.516-1.516-1.397 0-1.731-.325-1.731-1.686 0-1.348-.337-1.685-1.684-1.685s-1.684.337-1.684 1.685Zm-3.508 16.813.198 5.152-5.154-.198-5.154-.197.037-4.887c.021-2.688.053-4.962.073-5.055.019-.093 2.233-.123 4.919-.068l4.884.101.197 5.152Zm-81.369 10.149v11.795H68.113v-23.591H44.536v11.796Zm74.773-10.223c0 2.151 2.876 2.049 3.035-.108.082-1.116-.267-1.465-1.464-1.465s-1.571.375-1.571 1.573Zm-54.624 2.062c.516.622.715 3.527.588 8.594l-.191 7.655-8.59.189-8.588.189v-8.333c0-4.584.202-8.536.45-8.783.246-.247 3.846-.45 8-.45 5.634 0 7.75.239 8.33.939Zm71.464 3.106c0 3.145-.112 3.37-1.684 3.37-1.571 0-1.684.224-1.684 3.37s-.112 3.37-1.684 3.37c-1.347 0-1.684.337-1.684 1.685 0 1.573-.224 1.685-3.368 1.685-3.159 0-3.368.107-3.368 1.715 0 1.697.049 1.713 4.884 1.517l4.883-.199.204-3.172.205-3.174 4.848-.196c4.444-.182 4.866-.324 5.063-1.715.175-1.234-.106-1.516-1.515-1.516-1.705 0-1.732-.076-1.732-5.055 0-4.943-.037-5.056-1.684-5.056-1.571 0-1.684.225-1.684 3.371Zm-84.738 4.886.198 4.887 4.884.198 4.884.198v-10.169H51.213l.198 4.886Zm44.32 10.279c0 1.548.248 1.685 3.032 1.685s3.031-.137 3.031-1.685c0-1.547-.247-1.685-3.031-1.685-2.784 0-3.031.138-3.031 1.685Zm43.786 0c0 1.348.337 1.685 1.684 1.685 1.348 0 1.685-.337 1.685-1.685s-.337-1.685-1.685-1.685c-1.347 0-1.684.337-1.684 1.685Z" fill="#000"/>
  <path d="M57.977 357v-2.76h-8.28v-4.488h6.431v-2.736h-6.431v-4.08h8.015V340.2H46.529V357h11.449Zm8.211.192c3.936 0 6.6-2.184 6.6-6.264V340.2h-2.976v10.752c0 2.304-1.488 3.456-3.624 3.456s-3.6-1.152-3.6-3.456V340.2h-3v10.728c0 4.08 2.688 6.264 6.6 6.264Zm16.493 0c2.256 0 4.104-1.152 4.728-2.856V357h2.832v-6.264c0-1.608-1.32-2.76-2.784-2.76h-4.464v2.424H86.4c.528 0 .864.336.864.864 0 1.8-2.184 3.312-4.464 3.312-2.976 0-5.28-2.256-5.28-5.976s2.304-5.856 5.328-5.856c2.304 0 3.96 1.272 4.248 3.168h3.192c-.264-3.48-3.288-5.904-7.416-5.904-4.368 0-8.4 2.856-8.4 8.592 0 5.736 3.96 8.592 8.208 8.592Zm21.293-.192v-2.76h-8.28v-4.488h6.432v-2.736h-6.432v-4.08h8.016V340.2H92.526V357h11.448Zm5.162 0v-11.832L116.432 357h3.408v-16.8h-3.168v11.856L109.4 340.2h-3.432V357h3.168Zm16.63 0v-16.8h-3.192V357h3.192Zm17.174 0-6.48-16.8h-2.976l-6.456 16.8h3.264l1.44-3.912h6.48l1.44 3.912h3.288Zm-7.944-12.744 2.256 6.144h-4.512l2.256-6.144Z" fill="#000"/>
  <path d="M273.303 129.3V23.093c.322-6.597 4.344-20.082 17.862-21.241 16.896-1.448 63.724 0 69.517 0h44.448c7.18 0 13 5.82 13 13V34.07c0 7.18-5.819 13-12.999 13h-5.345c-8.101 0-15.743 8.368-18.552 12.552-.039 24.308.098 53.653.207 69.678l9.655 7.725V253.37h-9.655v17.862h18.345c6.115.805 18.344 6.759 18.344 24.138v473.104c0 9.012-5.117 27.228-25.586 28-20.469.773-94.46.322-128.897 0-10.459.644-31.282-4.055-30.896-28 .383-23.736.165-279.665.004-468.148l-.004-4.956c-.322-8.046 5.503-24.138 19.793-24.138h19.31v-16.414h-7.724V137.025l9.173-7.725Z" fill="#FCFCFC"/>
  <path d="M273.303 129.3V23.093c.322-6.597 4.345-20.082 17.862-21.241 16.896-1.448 63.724 0 69.517 0h44.448c7.18 0 13 5.82 13 13V34.07c0 7.18-5.819 13-12.999 13h-5.345c-8.101 0-15.743 8.368-18.552 12.552-.039 24.308.098 53.653.207 69.678m-108.138 0-9.173 7.725m9.173-7.725h108.138m0 0 9.655 7.725m0 0V253.37h-9.655m9.655-116.345c-1.545 1.158-85.288.483-126.966 0M381.441 253.37v17.862m0-17.862-109.587 1.448m109.587 16.414h18.345c6.115.805 18.344 6.759 18.344 24.138v473.104c0 9.012-5.117 27.228-25.586 28-20.469.773-94.46.322-128.897 0-10.459.644-31.282-4.055-30.896-28 .386-23.945.161-284.184 0-473.104-.322-8.046 5.503-24.138 19.793-24.138h19.31m109.587 0H271.854m0 0v-16.414m0 0h-7.724V137.025" stroke="#000"/>
  <path d="M856.477 129.3V23.093c-.322-6.597-4.345-20.082-17.862-21.241-16.897-1.448-63.725 0-69.518 0h-44.448c-7.18 0-13 5.82-13 13V34.07c0 7.18 5.819 13 12.999 13h5.346c8.1 0 15.742 8.368 18.551 12.552.039 24.308-.098 53.653-.206 69.678l-9.656 7.725V253.37h9.656v17.862h-18.345c-6.115.805-18.345 6.759-18.345 24.138v473.104c0 9.012 5.117 27.228 25.586 28 20.469.773 94.46.322 128.897 0 10.46.644 31.283-4.055 30.896-28-.382-23.736-.164-279.665-.004-468.148l.004-4.956c.322-8.046-5.503-24.138-19.793-24.138h-19.31v-16.414h7.724V137.025l-9.172-7.725Z" fill="#FCFCFC"/>
  <path d="M856.477 129.3V23.093c-.322-6.597-4.345-20.082-17.862-21.241-16.897-1.448-63.725 0-69.518 0h-44.448c-7.18 0-13 5.82-13 13V34.07c0 7.18 5.819 13 12.999 13h5.346c8.1 0 15.742 8.368 18.551 12.552.039 24.308-.098 53.653-.206 69.678m108.138 0 9.172 7.725m-9.172-7.725H748.339m0 0-9.656 7.725m0 0V253.37h9.656m-9.656-116.345c1.545 1.158 85.288.483 126.966 0M748.339 253.37v17.862m0-17.862 109.586 1.448m-109.586 16.414h-18.345c-6.115.805-18.345 6.759-18.345 24.138v473.104c0 9.012 5.117 27.228 25.586 28 20.469.773 94.46.322 128.897 0 10.46.644 31.283-4.055 30.896-28-.386-23.945-.161-284.184 0-473.104.322-8.046-5.503-24.138-19.793-24.138h-19.31m-109.586 0h109.586m0 0v-16.414m0 0h7.724V137.025" stroke="#000"/>
  <path d="M505.04 129.3V23.093c.322-6.597 4.345-20.082 17.862-21.241 16.897-1.448 63.724 0 69.517 0 5.794 0 21.242 0 20.759 28-.386 22.4-.161 75.632 0 99.448l9.655 7.725V253.37h-9.655v17.862h18.345c6.115.805 18.345 6.759 18.345 24.138v473.104c0 9.012-5.117 27.228-25.586 28-20.469.773-94.46.322-128.897 0-10.46.644-31.283-4.055-30.897-28 .383-23.736.165-279.665.004-468.148l-.004-4.956c-.322-8.046 5.504-24.138 19.793-24.138h19.311v-16.414h-7.725V137.025l9.173-7.725Z" fill="#FCFCFC"/>
  <path d="M505.04 129.3V23.093c.322-6.597 4.345-20.082 17.862-21.241 16.897-1.448 63.724 0 69.517 0 5.794 0 21.242 0 20.759 28-.386 22.4-.161 75.632 0 99.448m-108.138 0-9.173 7.725m9.173-7.725h108.138m0 0 9.655 7.725m0 0V253.37h-9.655m9.655-116.345c-1.545 1.158-85.287.483-126.966 0M613.178 253.37v17.862m0-17.862-109.586 1.448m109.586 16.414h18.345c6.115.805 18.345 6.759 18.345 24.138v473.104c0 9.012-5.117 27.228-25.586 28-20.469.773-94.46.322-128.897 0-10.46.644-31.283-4.055-30.897-28 .386-23.945.161-284.184 0-473.104-.322-8.046 5.504-24.138 19.793-24.138h19.311m109.586 0H503.592m0 0v-16.414m0 0h-7.725V137.025m62.747-57.127h14.62c13.255 0 24-10.745 24-24V41.139c0-13.255-10.745-24-24-24h-26.332c-13.255 0-24 10.745-24 24v14.759c0 13.255 10.745 24 24 24h11.712Z" stroke="#000"/>
  <path d="M552.976 307.656c0 18.432 8.832 32.64 24.96 32.64 33.152 0 19.2-54.4 43.392-54.4 9.472 0 15.36 7.936 15.36 21.376 0 12.928-7.168 21.504-18.048 22.656v8.576c15.744-1.536 25.984-13.824 25.984-31.232 0-17.92-9.344-30.208-23.296-30.208-31.232 0-18.688 54.144-43.392 54.144-12.032 0-17.024-9.984-17.024-23.552 0-15.104 8.704-23.936 22.144-25.216v-8.576c-18.176 1.28-30.08 13.824-30.08 33.792ZM554 400.287l39.424-31.104 25.088 28.416v-11.008l-28.8-32.64h54.912v-8.192H554v8.192h25.856l7.936 8.96L554 389.791v10.496Zm76.544.732v9.728h14.08v-9.728h-14.08ZM554 409.979h64.512v-8.064H554v8.064Zm0 17.04h34.688c13.696 0 23.424 8.576 23.424 20.608 0 10.368-7.936 17.152-19.968 17.152H554v8.064h39.168c16 0 26.368-9.472 26.368-24.064 0-10.24-4.736-18.432-14.464-21.76h13.44v-8.064H554v8.064Zm-1.024 76.742c0 13.952 7.168 23.296 18.432 23.296 29.696 0 11.776-38.528 30.464-38.528 6.144 0 10.24 5.504 10.24 13.824 0 6.144-2.816 15.232-11.904 16.256v8.064c11.648-.768 19.328-10.112 19.328-23.808 0-13.824-6.912-22.784-17.664-22.784-28.032 0-9.344 38.528-30.464 38.528-5.888 0-11.008-5.888-11.008-14.848 0-10.24 4.864-16.256 13.952-17.152v-8.064c-13.312 1.024-21.376 10.624-21.376 25.216Zm65.536 35.308v-13.824h-7.424v13.824h-37.76c-11.904 0-19.328 7.296-19.328 18.944v9.6h7.424v-9.728c0-6.528 4.48-10.752 11.904-10.752h37.76v20.48h7.424v-20.48h21.12v-8.064h-21.12Zm0 65.563v-8.448c0-9.984-4.736-15.36-13.696-17.92h13.696V570.2H554v8.064h27.52c16.512 0 29.568 3.712 29.568 17.92v8.448h7.424Zm12.032 1.712v9.728h14.08v-9.728h-14.08ZM554 615.304h64.512v-8.064H554v8.064Zm-1.024 35.984c0 16.256 8.064 26.112 20.992 28.416v-7.68c-8.448-2.56-13.568-10.112-13.568-20.736 0-15.232 11.904-22.4 25.856-22.4 13.952 0 25.856 7.04 25.856 22.4 0 10.624-6.272 19.456-14.72 20.736v7.936c14.208-2.176 22.144-14.976 22.144-28.672 0-20.48-16.384-30.848-33.28-30.848s-33.28 10.368-33.28 30.848Z" fill="#1A1B1C"/>
</svg>
