<?xml version="1.0" standalone="no"?>
<!DOCTYPE svg PUBLIC "-//W3C//DTD SVG 20010904//EN"
 "http://www.w3.org/TR/2001/REC-SVG-20010904/DTD/svg10.dtd">
<svg version="1.0" xmlns="http://www.w3.org/2000/svg"
 width="512.000000pt" height="512.000000pt" viewBox="0 0 512.000000 512.000000"
 preserveAspectRatio="xMidYMid meet">
<metadata>
Created by potrace 1.14, written by Peter Selinger 2001-2017
</metadata>
<g transform="translate(0.000000,512.000000) scale(0.100000,-0.100000)"
fill="#000000" stroke="none">
<path d="M2355 4533 c-252 -23 -516 -113 -709 -241 -89 -59 -220 -187 -276
-271 -111 -165 -160 -320 -167 -528 -16 -442 146 -746 507 -952 173 -99 357
-164 750 -266 401 -104 546 -158 666 -248 71 -52 118 -115 146 -195 17 -47 19
-75 16 -159 -4 -93 -8 -109 -41 -176 -65 -132 -192 -227 -362 -271 -165 -42
-388 -45 -540 -6 -139 35 -238 91 -336 189 -121 122 -189 263 -215 444 l-6 47
-355 0 -355 0 7 -73 c60 -640 468 -1101 1096 -1235 358 -77 799 -45 1120 83
459 182 714 523 736 985 20 404 -124 717 -421 915 -186 123 -360 186 -858 309
-190 47 -379 98 -420 112 -195 70 -329 168 -385 283 -26 51 -28 66 -28 171 0
110 1 118 33 182 55 112 174 200 327 243 93 26 340 32 446 10 161 -32 305
-113 389 -217 55 -68 106 -178 122 -262 l13 -66 352 0 353 0 -5 38 c-28 214
-47 290 -105 424 -75 174 -226 361 -382 472 -189 134 -446 225 -723 256 -85 9
-302 11 -390 3z"/>
</g>
</svg>
